<?xml version="1.0" encoding="iso-8859-1"?>
<!-- Generator: Adobe Illustrator 19.0.0, SVG Export Plug-In . SVG Version: 6.00 Build 0)  -->
<svg version="1.1" id="Layer_1" xmlns="http://www.w3.org/2000/svg" xmlns:xlink="http://www.w3.org/1999/xlink" x="0px" y="0px"
	 viewBox="0 0 512.001 512.001" style="enable-background:new 0 0 512.001 512.001;" xml:space="preserve">
<rect x="79.916" y="59.298" style="fill:#FFFFFF;" width="352.165" height="80.042"/>
<polygon style="fill:#C5FFCA;" points="55.577,34.8 55.577,99.952 79.746,99.952 79.746,58.969 431.774,58.969 431.774,99.952 
	456.994,99.952 456.994,34.8 "/>
<polygon style="fill:#B3B3B3;" points="431.774,99.952 431.774,138.832 79.746,138.832 79.746,99.952 55.577,99.952 55.577,163.002 
	456.994,163.002 456.994,99.952 "/>
<polyline style="fill:#AA603B;" points="31.408,356.354 31.408,203.984 480.113,203.984 480.113,356.354 "/>
<path style="fill:#B3B3B3;" d="M63.908,355.439L63.908,355.439c0-22.102,17.917-40.019,40.019-40.019h304.146
	c22.102,0,40.019,17.918,40.019,40.019l0,0"/>
<rect x="7.881" y="411.463" style="fill:#AA603B;" width="496.233" height="32.016"/>
<rect x="7.881" y="355.443" style="fill:#F2BF7E;" width="496.233" height="56.03"/>
<rect x="79.746" y="403.645" width="352.028" height="15.762"/>
<polygon points="487.468,339.541 471.706,339.541 471.706,211.349 38.764,211.856 38.764,339.541 23.002,339.541 23.002,196.112 
	487.468,195.568 "/>
<g>
	<path style="fill:#C5FFCA;" d="M87.92,315.42v-48.023c0-8.841,7.167-16.007,16.007-16.007h120.057
		c8.841,0,16.007,7.167,16.007,16.007v48.023"/>
	<path style="fill:#C5FFCA;" d="M264.004,315.42v-48.023c0-8.841,7.167-16.007,16.007-16.007h128.061
		c8.841,0,16.007,7.167,16.007,16.007v48.023"/>
</g>
<path d="M512,347.558h-56.687c-2.389-14.364-11.188-26.579-23.352-33.61v-46.551c0-13.172-10.716-23.889-23.889-23.889H280.011
	c-13.172,0-23.889,10.716-23.889,23.889v40.142h-8.249v-40.142c0-13.172-10.716-23.889-23.889-23.889H103.926
	c-13.172,0-23.887,10.716-23.887,23.889v46.551c-12.164,7.03-20.963,19.246-23.353,33.611H0v103.804h32.459v32.143h15.762v-32.143
	h391.96v32.143h15.762v-32.143h56.058V347.558H512z M271.884,267.397c0-4.482,3.645-8.126,8.126-8.126h128.061
	c4.482,0,8.126,3.645,8.126,8.126v40.846c-2.644-0.454-5.355-0.704-8.126-0.704H271.884V267.397z M95.801,267.397
	c0-4.482,3.645-8.126,8.125-8.126h120.058c4.482,0,8.126,3.645,8.126,8.126v40.142H103.926c-2.77,0-5.482,0.25-8.125,0.703V267.397z
	 M103.926,323.301h304.147c15.002,0,27.633,10.334,31.156,24.256H72.77C76.293,333.635,88.924,323.301,103.926,323.301z
	 M15.762,435.599v-16.195h48.222v-15.762H15.762V363.32h480.475v40.321h-48.702v15.762h48.702v16.195H15.762z"/>
<path d="M48.222,28.495v142.913H464.35V28.495C464.35,28.495,48.222,28.495,48.222,28.495z M448.588,44.258v47.287h-8.622V51.416
	H72.034v40.13h-8.05V44.259h384.604V44.258z M424.203,67.178v64.276H87.797V67.178H424.203z M63.984,155.646v-48.338h8.05v39.909
	h367.931v-39.909h8.622v48.338H63.984z"/>
<rect x="136.061" y="87.993" transform="matrix(-0.7071 -0.7071 0.7071 -0.7071 175.5008 271.3177)" width="15.762" height="22.638"/>
<rect x="176.09" y="76.676" transform="matrix(-0.7071 -0.7071 0.7071 -0.7071 243.8305 299.6302)" width="15.762" height="45.28"/>
<rect x="224.108" y="88.001" transform="matrix(-0.7071 -0.7071 0.7071 -0.7071 325.8002 333.5904)" width="15.762" height="22.638"/>
<rect x="264.129" y="76.677" transform="matrix(-0.7071 -0.7071 0.7071 -0.7071 394.1226 361.885)" width="15.762" height="45.28"/>
<rect x="312.147" y="87.991" transform="matrix(-0.7071 -0.7071 0.7071 -0.7071 476.0997 395.8271)" width="15.762" height="22.638"/>
<rect x="352.168" y="76.668" transform="matrix(-0.7071 -0.7071 0.7071 -0.7071 544.422 424.1218)" width="15.762" height="45.28"/>
<g>
</g>
<g>
</g>
<g>
</g>
<g>
</g>
<g>
</g>
<g>
</g>
<g>
</g>
<g>
</g>
<g>
</g>
<g>
</g>
<g>
</g>
<g>
</g>
<g>
</g>
<g>
</g>
<g>
</g>
</svg>
