<?xml version="1.0" encoding="iso-8859-1"?>
<!-- Generator: Adobe Illustrator 19.0.0, SVG Export Plug-In . SVG Version: 6.00 Build 0)  -->
<svg version="1.1" id="Capa_1" xmlns="http://www.w3.org/2000/svg" xmlns:xlink="http://www.w3.org/1999/xlink" x="0px" y="0px"
	 viewBox="0 0 223.065 223.065" style="enable-background:new 0 0 223.065 223.065;" xml:space="preserve">
<g>
	<path d="M192.984,64.065h-11.716c12.324-15.493,11.331-38.17-2.993-52.496C170.814,4.108,160.894,0,150.343,0
		c-10.55,0-20.47,4.108-27.931,11.569c-3.623,3.624-7.292,8.722-10.548,14.475c-3.256-5.75-6.923-10.845-10.546-14.468
		c-7.461-7.46-17.38-11.563-27.931-11.563s-20.47,4.123-27.931,11.583c-14.308,14.309-15.314,36.974-3.035,52.469H30.748
		c-11.533,0-21.215,9.35-21.215,20.883v0.234c0,11.533,9.682,20.883,21.215,20.883h162.236c11.533,0,20.549-9.35,20.549-20.883
		v-0.234C213.533,73.415,204.517,64.065,192.984,64.065z M128.877,48.448c3.343-8.831,8.156-16.145,11.213-19.201
		c2.738-2.738,6.38-4.247,10.253-4.247c3.874,0,7.516,1.509,10.254,4.247c5.653,5.653,5.653,14.854,0,20.507
		c-6.261,6.26-22.769,14.202-32.395,14.202c-1.054,0-1.739-0.103-2.142-0.194C125.615,61.889,125.788,56.609,128.877,48.448z
		 M63.135,49.809c-5.653-5.653-5.653-14.908,0-20.562C65.874,26.509,69.515,25,73.388,25s7.515,1.522,10.253,4.261
		c3.057,3.057,7.87,10.384,11.213,19.215c3.091,8.161,3.264,13.468,2.817,15.341c-0.402,0.092-1.087,0.249-2.14,0.249
		c-0.001,0-0.001,0-0.002,0C85.903,64.065,69.395,56.068,63.135,49.809z"/>
	<path d="M23.533,211.065c0,6.617,5.716,12,12.333,12h152c6.617,0,11.667-5.383,11.667-12v-83h-176V211.065z"/>
</g>
<g>
</g>
<g>
</g>
<g>
</g>
<g>
</g>
<g>
</g>
<g>
</g>
<g>
</g>
<g>
</g>
<g>
</g>
<g>
</g>
<g>
</g>
<g>
</g>
<g>
</g>
<g>
</g>
<g>
</g>
</svg>
