<?xml version="1.0" encoding="iso-8859-1"?>
<!-- Generator: Adobe Illustrator 19.0.0, SVG Export Plug-In . SVG Version: 6.00 Build 0)  -->
<svg version="1.1" id="Layer_1" xmlns="http://www.w3.org/2000/svg" xmlns:xlink="http://www.w3.org/1999/xlink" x="0px" y="0px"
	 viewBox="0 0 512.005 512.005" style="enable-background:new 0 0 512.005 512.005;" xml:space="preserve">
<g>
	<path style="fill:#4482C3;" d="M388.416,512.002V158.898c0,0,2.207-62.526,26.483-70.621c0,0,3.681-19.129-79.448-44.138
		l-26.483-26.483h0.026l-52.965,114.759L203.064,17.657L176.581,44.14C93.451,69.148,97.133,88.278,97.133,88.278
		c24.276,8.095,26.483,70.621,26.483,70.621v353.103H388.416z"/>
	<g>
		<path style="fill:#285680;" d="M123.613,158.898c0,0-2.198-61.617-26.015-70.391l-0.494-0.23L0,211.864l61.793,44.138l61.82-32.38
			V158.898z"/>
		<path style="fill:#285680;" d="M388.393,158.898c0,0,2.198-61.617,26.015-70.391l0.494-0.23l97.103,123.586l-61.793,44.138
			l-61.82-32.38V158.898z"/>
	</g>
	<path style="fill:#1E4460;" d="M205.829,12.106l-2.772,5.553l52.966,114.759l52.948-114.759l-2.79-5.57
		c-3.699-7.406-11.273-12.085-19.553-12.085h-61.237C217.102,0.004,209.528,4.691,205.829,12.106"/>
	<g>
		<polygon style="fill:#285680;" points="239.471,96.544 203.04,114.764 176.575,44.143 203.057,17.66 		"/>
		<polygon style="fill:#285680;" points="272.559,96.544 308.99,114.764 335.455,44.143 308.973,17.66 		"/>
	</g>
	<path style="fill:#C03A2B;" d="M256.003,229.519c0-19.5,15.81-35.31,35.31-35.31c1.395,0,2.763,0.079,4.114,0.238
		c23.225,2.692,34.322,30.376,21.363,49.823l-60.787,73.525l-60.787-73.525c-12.959-19.447-1.863-47.13,21.363-49.823
		c1.351-0.159,2.719-0.238,4.114-0.238C240.192,194.209,256.003,210.019,256.003,229.519"/>
</g>
<g>
</g>
<g>
</g>
<g>
</g>
<g>
</g>
<g>
</g>
<g>
</g>
<g>
</g>
<g>
</g>
<g>
</g>
<g>
</g>
<g>
</g>
<g>
</g>
<g>
</g>
<g>
</g>
<g>
</g>
</svg>
