<?xml version="1.0" encoding="iso-8859-1"?>
<!-- Generator: Adobe Illustrator 19.0.0, SVG Export Plug-In . SVG Version: 6.00 Build 0)  -->
<svg version="1.1" id="Layer_1" xmlns="http://www.w3.org/2000/svg" xmlns:xlink="http://www.w3.org/1999/xlink" x="0px" y="0px"
	 viewBox="0 0 511.999 511.999" style="enable-background:new 0 0 511.999 511.999;" xml:space="preserve">
<rect x="407.8" y="137.96" style="fill:#688787;" width="38.826" height="23.237"/>
<polyline style="fill:#DBDDDD;" points="468.254,60.913 468.254,8.084 386.182,8.084 386.182,60.913 "/>
<g style="opacity:0.15;">
	<rect x="386.177" y="8.084" style="fill:#231F20;" width="25.217" height="52.828"/>
</g>
<rect x="46.522" y="142.692" style="fill:#DBDDDD;" width="46.192" height="31.442"/>
<g style="opacity:0.15;">
	<rect x="46.522" y="142.692" style="fill:#231F20;" width="25.315" height="31.442"/>
</g>
<g>
	<path style="fill:#53CAF9;" d="M476.409,87.182V60.913h-15.638h-10.655h-72.087v71.365c0,3.139,2.542,5.683,5.68,5.683h87.018
		c3.139,0,5.683-2.544,5.683-5.683v-19.77"/>
	<path style="fill:#53CAF9;" d="M92.822,174.133h-7.368H35.59v49.363c0,2.171,1.758,3.93,3.929,3.93h60.192
		c2.171,0,3.928-1.76,3.928-3.93v-49.363H92.822z"/>
</g>
<g style="opacity:0.15;">
	<path style="fill:#231F20;" d="M403.695,132.278V60.913h-25.667v71.365c0,3.139,2.542,5.683,5.68,5.683h25.669
		C406.239,137.961,403.695,135.417,403.695,132.278z"/>
</g>
<g style="opacity:0.15;">
	<path style="fill:#231F20;" d="M61.258,223.496v-49.363H35.591v49.363c0,2.171,1.758,3.93,3.929,3.93h25.669
		C63.016,227.426,61.258,225.666,61.258,223.496z"/>
</g>
<g>
	<path style="fill:#231F20;" d="M476.409,95.266c4.466,0,8.084-3.618,8.084-8.084V60.913c0-4.466-3.618-8.084-8.084-8.084h-0.071
		V8.084c0-4.466-3.618-8.084-8.084-8.084h-82.072c-4.466,0-8.084,3.618-8.084,8.084v44.744h-0.069c-4.466,0-8.084,3.618-8.084,8.084
		v71.365c0,7.592,6.175,13.767,13.765,13.767h16.012v15.153c0,4.466,3.618,8.084,8.084,8.084h11.329v155.831
		c0,53.173-24.44,100.741-62.671,132.074c17.546-23.149,27.972-51.977,27.972-83.198c0-76.099-61.911-138.009-138.008-138.009
		c-76.099,0-138.01,61.911-138.01,138.009c0,27.159,7.89,52.508,21.492,73.883c-32.169-31.066-52.21-74.614-52.21-122.76v-89.603
		h22.013c6.625,0,12.013-5.389,12.013-12.014v-49.363c0-4.466-3.618-8.084-8.084-8.084h-2.845v-23.355
		c0-4.466-3.618-8.084-8.084-8.084H46.519c-4.466,0-8.084,3.618-8.084,8.084v23.355H35.59c-4.466,0-8.084,3.618-8.084,8.084v49.363
		c0,6.625,5.388,12.014,12.013,12.014h22.011v89.603c0,98.411,76.462,179.294,173.096,186.377c3.891,0.331,7.826,0.51,11.801,0.51
		c0.333,0,0.663-0.011,0.995-0.013c0.332,0.001,0.662,0.013,0.994,0.013c103.05,0,186.886-83.836,186.886-186.886V169.281h11.331
		c4.466,0,8.084-3.618,8.084-8.084v-15.153h16.011c7.591,0,13.766-6.175,13.766-13.767v-19.77c0-4.466-3.618-8.084-8.084-8.084
		s-8.084,3.618-8.084,8.084v17.368h-21.693h-38.827h-21.693V68.996h82.212v18.185C468.325,91.647,471.944,95.266,476.409,95.266z
		 M54.603,150.778h30.024v15.271H54.603V150.778z M43.675,182.217h2.845h46.192h2.845v37.125H43.675V182.217z M124.584,373.991
		c0-67.183,54.658-121.841,121.842-121.841c67.183,0,121.84,54.658,121.84,121.841c0,66.851-54.119,121.291-120.845,121.828
		c-3.883-0.023-7.735-0.171-11.553-0.449C173.61,489.999,124.584,437.617,124.584,373.991z M438.548,146.045v7.069h-22.658v-7.069
		H438.548z M394.266,16.168h65.904v36.66h-65.904V16.168z"/>
	<path style="fill:#231F20;" d="M412.117,23.586c-4.466,0-8.084,3.618-8.084,8.084v7.006c0,4.466,3.618,8.084,8.084,8.084
		s8.084-3.618,8.084-8.084v-7.006C420.201,27.205,416.583,23.586,412.117,23.586z"/>
	<path style="fill:#231F20;" d="M443.376,23.586c-4.466,0-8.084,3.618-8.084,8.084v7.006c0,4.466,3.618,8.084,8.084,8.084
		c4.466,0,8.084-3.618,8.084-8.084v-7.006C451.46,27.205,447.842,23.586,443.376,23.586z"/>
</g>
<g>
</g>
<g>
</g>
<g>
</g>
<g>
</g>
<g>
</g>
<g>
</g>
<g>
</g>
<g>
</g>
<g>
</g>
<g>
</g>
<g>
</g>
<g>
</g>
<g>
</g>
<g>
</g>
<g>
</g>
</svg>
